<svg xmlns="http://www.w3.org/2000/svg" width="16" height="16" viewBox="0 0 16 16" fill="none">
  <path d="M7.99992 1.33325C6.68138 1.33325 5.39245 1.72425 4.29612 2.45679C3.19979 3.18933 2.34531 4.23052 1.84072 5.4487C1.33614 6.66687 1.20412 8.00731 1.46135 9.30052C1.71859 10.5937 2.35353 11.7816 3.28588 12.714C4.21823 13.6463 5.40611 14.2813 6.69932 14.5385C7.99253 14.7957 9.33297 14.6637 10.5511 14.1591C11.7693 13.6545 12.8105 12.8 13.5431 11.7037C14.2756 10.6074 14.6666 9.31846 14.6666 7.99992C14.6666 7.12444 14.4942 6.25753 14.1591 5.4487C13.8241 4.63986 13.333 3.90493 12.714 3.28587C12.0949 2.66682 11.36 2.17575 10.5511 1.84072C9.74231 1.50569 8.8754 1.33325 7.99992 1.33325ZM7.99992 13.3333C6.94509 13.3333 5.91394 13.0205 5.03688 12.4344C4.15982 11.8484 3.47623 11.0154 3.07256 10.0409C2.6689 9.06636 2.56328 7.994 2.76907 6.95944C2.97485 5.92487 3.48281 4.97456 4.22869 4.22868C4.97457 3.4828 5.92487 2.97485 6.95944 2.76906C7.99401 2.56328 9.06636 2.66889 10.0409 3.07256C11.0154 3.47623 11.8484 4.15982 12.4344 5.03688C13.0205 5.91394 13.3333 6.94509 13.3333 7.99992C13.3333 9.41441 12.7714 10.771 11.7712 11.7712C10.771 12.7713 9.41441 13.3333 7.99992 13.3333Z" fill="white"/>
  <path d="M8.22666 4.96667C8.06331 4.81613 7.85932 4.71692 7.64004 4.68136C7.42077 4.6458 7.19588 4.67547 6.99333 4.76667C6.7967 4.84621 6.62825 4.98257 6.5095 5.15832C6.39075 5.33407 6.32709 5.54123 6.32666 5.75334V10.2467C6.32709 10.4588 6.39075 10.6659 6.5095 10.8417C6.62825 11.0174 6.7967 11.1538 6.99333 11.2333C7.13784 11.2989 7.29464 11.333 7.45333 11.3333C7.73927 11.3321 8.01467 11.2252 8.22666 11.0333L10.6667 8.78667C10.7758 8.68674 10.8629 8.56519 10.9226 8.42976C10.9822 8.29433 11.013 8.14798 11.013 8C11.013 7.85203 10.9822 7.70568 10.9226 7.57025C10.8629 7.43482 10.7758 7.31327 10.6667 7.21334L8.22666 4.96667ZM7.66666 9.73334V6.26667L9.53999 8L7.66666 9.73334Z" fill="white"/>
</svg>